<svg width="40" height="40" viewBox="0 0 40 40" fill="none" xmlns="http://www.w3.org/2000/svg">
<path d="M29.3327 13.3333H10.666M13.9602 13.3333C14.0216 13.3333 14.0522 13.3333 14.0801 13.3324C14.9842 13.3046 15.7819 12.6065 16.0895 11.5737C16.099 11.5419 16.1087 11.5066 16.1281 11.4359L16.2347 11.0475C16.3257 10.716 16.3712 10.5503 16.4316 10.4095C16.6724 9.84801 17.1179 9.4581 17.6327 9.35827C17.7617 9.33325 17.9056 9.33325 18.1934 9.33325H21.8054C22.0932 9.33325 22.237 9.33325 22.3661 9.35827C22.8809 9.4581 23.3264 9.84801 23.5672 10.4095C23.6276 10.5503 23.6731 10.716 23.7641 11.0475L23.8707 11.4359C23.89 11.5062 23.8998 11.542 23.9093 11.5737C24.2169 12.6065 25.0146 13.3046 25.9187 13.3324C25.9465 13.3333 25.9772 13.3333 26.0386 13.3333" stroke="#999999" stroke-width="2" stroke-linecap="round" stroke-linejoin="round"/>
<path d="M13.334 16L14.1511 28.5833C14.2274 29.7589 15.0549 30.6667 16.0502 30.6667H23.9511C24.9464 30.6667 25.7739 29.7589 25.8502 28.5833L26.6673 16" stroke="#999999" stroke-width="2" stroke-linecap="round" stroke-linejoin="round"/>
</svg>
