<svg width="41" height="40" viewBox="0 0 41 40" fill="none" xmlns="http://www.w3.org/2000/svg">
<path d="M14.9496 14.7498C15.3586 14.695 15.7759 14.6667 16.1999 14.6667C21.3546 14.6667 25.5332 18.8454 25.5332 24.0001C25.5332 24.424 25.505 24.8414 25.4502 25.2504M14.9496 14.7498C15.5606 10.1863 19.4692 6.66675 24.1999 6.66675C29.3546 6.66675 33.5332 10.8454 33.5332 16.0001C33.5332 20.7308 30.0137 24.6394 25.4502 25.2504M14.9496 14.7498C10.3861 15.3607 6.86658 19.2694 6.86658 24.0001C6.86658 29.1547 11.0453 33.3334 16.1999 33.3334C20.9306 33.3334 24.8393 29.8139 25.4502 25.2504" stroke="#999999" stroke-width="2"/>
</svg>
