<svg width="28" height="28" viewBox="0 0 28 28" fill="none" xmlns="http://www.w3.org/2000/svg">
<rect width="28" height="28" rx="14" fill="#D9FFF1"/>
<path d="M14 28C21.6589 28 28 21.6452 28 14C28 6.34119 21.6452 0 13.9863 0C6.34119 0 0 6.34119 0 14C0 21.6452 6.35491 28 14 28ZM14 25.6668C7.52159 25.6668 2.34707 20.4785 2.34707 14C2.34707 7.52159 7.50786 2.33334 13.9863 2.33334C20.4648 2.33334 25.6668 7.52159 25.6668 14C25.6668 20.4785 20.4785 25.6668 14 25.6668ZM12.4903 20.5196C12.9432 20.5196 13.3275 20.3 13.602 19.8746L19.8746 10.0059C20.0256 9.73139 20.204 9.42943 20.204 9.12747C20.204 8.50982 19.6549 8.11178 19.0785 8.11178C18.7353 8.11178 18.3922 8.33139 18.1314 8.72942L12.4353 17.8706L9.73139 14.3706C9.40198 13.9314 9.10002 13.8216 8.71571 13.8216C8.12551 13.8216 7.65884 14.3019 7.65884 14.906C7.65884 15.2079 7.78237 15.4961 7.97452 15.7569L11.3236 19.8746C11.6667 20.3275 12.0372 20.5196 12.4903 20.5196Z" fill="#2FA947"/>
</svg>
