<svg width="25" height="24" viewBox="0 0 25 24" fill="none" xmlns="http://www.w3.org/2000/svg">
<path d="M9.34982 8.84981C9.5952 8.81696 9.84562 8.8 10.1 8.8C13.1928 8.8 15.7 11.3072 15.7 14.4C15.7 14.6544 15.683 14.9048 15.6502 15.1502M9.34982 8.84981C9.71639 6.11174 12.0616 4 14.9 4C17.9928 4 20.5 6.5072 20.5 9.6C20.5 12.4384 18.3883 14.7836 15.6502 15.1502M9.34982 8.84981C6.61174 9.21639 4.5 11.5616 4.5 14.4C4.5 17.4928 7.00721 20 10.1 20C12.9384 20 15.2836 17.8883 15.6502 15.1502" stroke="#0E0E0E" stroke-width="1.5"/>
</svg>
