<svg width="41" height="40" viewBox="0 0 41 40" fill="none" xmlns="http://www.w3.org/2000/svg">
<path d="M31.6607 12.5074C30.9236 10.6452 29.5164 9.2173 27.6979 8.48613C26.9116 8.17022 26.1152 8.0099 25.3317 8.0099C22.7257 8.0099 20.9024 9.73509 20.191 10.5439C19.4831 9.73232 17.6679 8 15.0627 8C14.2816 8 13.4876 8.15993 12.7025 8.47544C10.884 9.20661 9.47633 10.6345 8.73926 12.4963C7.95293 14.4831 8.0294 16.7348 8.94945 18.675C10.2559 21.4291 13.2258 25.7167 19.9556 30.5004L20.189 30.6667L20.4224 30.5004C27.1854 25.693 30.1521 21.4215 31.4497 18.6849C32.3706 16.7455 32.447 14.4938 31.6607 12.5074Z" stroke="#999999" stroke-width="2" stroke-linejoin="round"/>
</svg>
