<svg width="41" height="40" viewBox="0 0 41 40" fill="none" xmlns="http://www.w3.org/2000/svg">
<g clip-path="url(#clip0_14784_171428)">
<rect x="1" width="40" height="40" rx="20" fill="#2C3036"/>
<path d="M41 20.1286V19.8714C35.6857 19.7 25.26 19.5714 23.3143 17.6857C21.4286 15.74 21.2914 5.31429 21.1286 0H20.8714C20.7 5.31429 20.5714 15.74 18.6857 17.6857C16.74 19.5714 6.31429 19.7086 1 19.8714V20.1286C6.31429 20.3 16.74 20.4286 18.6857 22.3143C20.5714 24.26 20.7086 34.6857 20.8714 40H21.1286C21.3 34.6857 21.4286 24.26 23.3143 22.3143C25.26 20.4286 35.6857 20.2914 41 20.1286Z" fill="white"/>
</g>
<defs>
<clipPath id="clip0_14784_171428">
<rect width="40" height="40" fill="white" transform="translate(1)"/>
</clipPath>
</defs>
</svg>
