<svg width="40" height="40" viewBox="0 0 40 40" fill="none" xmlns="http://www.w3.org/2000/svg">
<rect width="40" height="40" rx="20" fill="#0077FF"/>
<path d="M20.9825 28C13.466 28 9.17864 22.7447 9 14H12.7651C12.8888 20.4184 15.6646 23.1371 17.8632 23.6977V14H21.4085V19.5355C23.5796 19.2973 25.8607 16.7748 26.6302 14H30.1755C29.8855 15.4391 29.3075 16.8017 28.4776 18.0025C27.6477 19.2033 26.5837 20.2166 25.3523 20.979C26.7269 21.6756 27.941 22.6615 28.9145 23.8717C29.888 25.082 30.5988 26.489 31 28H27.0974C26.7373 26.6876 26.0054 25.5128 24.9934 24.6228C23.9814 23.7328 22.7343 23.1673 21.4085 22.997V28H20.9825Z" fill="white"/>
</svg>
