<svg width="120" height="120" viewBox="0 0 120 120" fill="none" xmlns="http://www.w3.org/2000/svg">
<circle cx="60" cy="60" r="60" fill="white"/>
<path d="M77.6776 74.7372L77.6739 69.511C77.9906 69.3078 78.3625 69.2302 78.7842 69.2302C79.4304 69.2302 79.9478 69.4649 80.3363 69.9359C80.7285 70.4089 80.9255 71.1238 80.9255 72.0863C80.9255 73.0561 80.7248 73.7858 80.3253 74.2698C79.9239 74.7557 79.4102 74.9977 78.7842 74.9977C78.368 74.9977 77.9998 74.9497 77.6776 74.7372ZM82.3783 73.5992V76.2908H79.957C80.5665 76.1135 81.0894 75.7828 81.5166 75.3025C81.9272 74.8388 82.2125 74.2735 82.3783 73.5992ZM77.6721 55.9422L68.7236 67.0578L59.7678 55.9866L59.7807 76.2908H55.08L55.0635 43.6333H55.916L68.7439 60.1468L81.4595 43.6333H82.3617L82.3764 70.6379C82.2144 69.9581 81.9253 69.3891 81.511 68.9291C80.8224 68.1606 79.9128 67.7764 78.7694 67.7764C78.3754 67.7764 78.0127 67.8207 77.6739 67.9057L77.6721 55.9422Z" fill="#0E0E0E"/>
<path d="M45.769 65.9771L50.4568 66.0066H50.4623V66.0103C50.3868 66.3188 50.3003 66.6292 50.2027 66.934C50.1125 67.2388 50.0075 67.5418 49.8952 67.8374C49.6743 68.4248 49.4147 68.9901 49.1182 69.5314C48.8347 70.0597 48.5125 70.564 48.1534 71.0444C47.811 71.5044 47.4482 71.944 47.0616 72.3597C46.6731 72.7753 46.2606 73.167 45.8261 73.5254C45.4339 73.8523 45.0159 74.1516 44.5851 74.4176C44.1635 74.6781 43.7252 74.9072 43.2705 75.103C42.7991 75.3062 42.3149 75.4836 41.8251 75.6313C41.3335 75.7847 40.8327 75.9084 40.3263 76.0064C39.8016 76.108 39.275 76.1837 38.7447 76.2317C38.1997 76.2798 37.6473 76.2982 37.0968 76.2982C36.6236 76.2927 36.1541 76.2668 35.6864 76.2188C35.2187 76.1745 34.7547 76.1024 34.2907 76.0119C33.8323 75.9195 33.3775 75.8087 32.9264 75.6701C32.4697 75.5353 32.0242 75.3801 31.586 75.1991C31.1496 75.0217 30.715 74.824 30.2934 74.6079C29.8718 74.3918 29.463 74.1516 29.0616 73.8985C28.6639 73.6417 28.2754 73.3683 27.8998 73.0765C27.5205 72.7809 27.1522 72.4668 26.8024 72.1361C26.4563 71.8129 26.1359 71.4692 25.8302 71.1035C25.5228 70.7322 25.23 70.3387 24.9612 69.9304C24.6703 69.4797 24.4033 69.0123 24.1602 68.5301C23.9153 68.0443 23.6926 67.551 23.4974 67.0467C23.2838 66.5091 23.1052 65.9604 22.9469 65.4062C22.7885 64.8317 22.6596 64.2535 22.5602 63.6716C22.4552 63.0583 22.3761 62.4394 22.33 61.8187C22.2748 61.1703 22.2546 60.52 22.2582 59.8679C22.2638 59.2065 22.2914 58.5396 22.354 57.8764C22.4129 57.2409 22.4958 56.6091 22.6081 55.9847C22.7204 55.3917 22.8548 54.8061 23.0205 54.2316C23.1844 53.6718 23.3722 53.1195 23.5931 52.5764C23.7975 52.072 24.024 51.5788 24.2707 51.0966C24.5211 50.6163 24.7955 50.1489 25.0919 49.6982C25.3681 49.2918 25.659 48.9001 25.9775 48.5325C26.2813 48.1704 26.6128 47.8305 26.9589 47.5128C27.3143 47.1895 27.6862 46.881 28.0655 46.5946C28.4448 46.3083 28.8333 46.0423 29.2347 45.791C29.6361 45.5435 30.0485 45.3144 30.4665 45.1075C30.89 44.8988 31.3171 44.7085 31.7517 44.5478C32.1936 44.376 32.641 44.2282 33.0921 44.1044C33.5432 43.9769 34.0017 43.8716 34.4638 43.7922C34.9315 43.7072 35.401 43.6463 35.8705 43.6056C36.3511 43.565 36.8298 43.5483 37.3104 43.5483C37.837 43.5539 38.3672 43.5834 38.892 43.637C39.4057 43.6906 39.9231 43.77 40.4313 43.8753C40.9321 43.9769 41.4292 44.1044 41.919 44.2596C42.4032 44.4092 42.8783 44.5847 43.3496 44.7879C43.8007 44.9819 44.2371 45.2091 44.6569 45.4677C45.0878 45.7282 45.5002 46.0238 45.8961 46.3452C46.3269 46.6944 46.7357 47.0786 47.1205 47.4795C47.5053 47.8859 47.868 48.3182 48.205 48.7634C48.5603 49.2216 48.877 49.713 49.1606 50.2191C49.446 50.7309 49.7001 51.2647 49.9118 51.8208C50.0075 52.0683 50.0996 52.3196 50.1788 52.5727C50.2616 52.8331 50.3408 53.0936 50.4089 53.3578L50.4145 53.3615H50.4053L45.6493 53.3264H45.6457C45.3198 52.5985 44.9239 51.9279 44.447 51.3275C43.9867 50.7493 43.4601 50.2321 42.8562 49.7961C42.0295 49.1957 41.1273 48.7856 40.1882 48.5251C39.2492 48.2609 38.2641 48.1446 37.2772 48.1409C36.5591 48.1316 35.8466 48.1944 35.1451 48.3311C34.4859 48.4623 33.8341 48.6618 33.2118 48.9408C32.5821 49.2179 31.9984 49.567 31.4534 49.9771C30.8992 50.4002 30.3891 50.886 29.927 51.4347C28.9843 52.5505 28.3159 53.8085 27.8722 55.1497C27.3879 56.6332 27.1743 58.2219 27.1633 59.8494C27.1541 61.3864 27.3677 62.855 27.8151 64.2332C28.2533 65.5707 28.9125 66.8269 29.8147 67.9833C30.2658 68.5615 30.7703 69.0862 31.3227 69.5462C31.8529 69.9877 32.4348 70.3682 33.0589 70.6767C33.6868 70.9852 34.3331 71.2106 34.9978 71.3603C35.6956 71.5191 36.4082 71.5949 37.1299 71.5986C37.6602 71.6023 38.1905 71.5727 38.7208 71.5025C39.2179 71.436 39.715 71.3344 40.1993 71.1885C40.6835 71.0425 41.1549 70.8578 41.606 70.6324C42.0534 70.4107 42.4824 70.1502 42.8893 69.851C43.311 69.5425 43.6939 69.1933 44.0456 68.8109C44.3973 68.4267 44.714 68.0036 44.9975 67.5492C45.1485 67.3016 45.2848 67.0504 45.4118 66.7899C45.5444 66.5257 45.6604 66.2523 45.7709 65.9734H45.769V65.9771Z" fill="#0E0E0E"/>
<path d="M91.7388 76.2946V67.9575H97.5865V69.3652H93.3406V71.2199H97.2901V72.6276H93.3406V74.8888H97.7412V76.2965H91.7388V76.2946ZM85.3736 71.4897H86.5557C87.3198 71.4897 87.7948 71.4546 87.9881 71.3844C88.1796 71.3179 88.3306 71.1996 88.4337 71.0315C88.5442 70.8653 88.5976 70.6565 88.5976 70.4053C88.5976 70.1226 88.5276 69.8972 88.384 69.7254C88.2422 69.5536 88.0434 69.4428 87.7838 69.3985C87.653 69.3763 87.2664 69.367 86.6219 69.367H85.3736V71.4897ZM83.7754 76.2946V67.9575H87.1357C87.9789 67.9575 88.5939 68.0333 88.9769 68.1829C89.3617 68.3325 89.6655 68.5986 89.8957 68.9828C90.1258 69.3671 90.2418 69.803 90.2418 70.2926C90.2418 70.9244 90.0669 71.4361 89.7189 71.8462C89.3728 72.2526 88.8554 72.5076 88.1612 72.6147C88.5037 72.8253 88.7891 73.0599 89.01 73.3148C89.2347 73.5661 89.5348 74.0224 89.9141 74.669L90.8789 76.2928H88.9714L87.828 74.475C87.4192 73.8266 87.1375 73.4201 86.9847 73.252C86.8337 73.0839 86.6753 72.9657 86.5041 72.9047C86.3329 72.8438 86.0641 72.8124 85.6995 72.8124H85.3736V76.2946H83.7754Z" fill="#0E0E0E"/>
<path d="M70.4329 76.2945V69.365H68.0908V67.9574H74.3584V69.365H72.0329V76.2945H70.4329ZM77.6745 67.9056V69.511C77.4646 69.6255 77.2786 69.7678 77.1092 69.9673C76.7078 70.4439 76.5034 71.1644 76.5034 72.1194C76.5034 73.0634 76.7133 73.7839 77.1258 74.2735C77.2933 74.4674 77.4775 74.6226 77.6763 74.7372L77.6782 76.3351C76.9766 76.1762 76.3782 75.8326 75.9032 75.3117C75.209 74.5524 74.8629 73.5105 74.8629 72.1786C74.8629 71.3269 74.9844 70.6157 75.2219 70.0375C75.4024 69.6107 75.6473 69.2302 75.9547 68.8903C76.2696 68.5541 76.6065 68.3028 76.9785 68.1366C77.1994 68.0423 77.4296 67.9592 77.6745 67.9056ZM60.875 73.5936L62.4327 73.4311C62.5229 73.9816 62.7126 74.3843 62.9998 74.6392C63.2833 74.8997 63.6682 75.0272 64.1524 75.0272C64.6606 75.0272 65.0509 74.9126 65.3087 74.6836C65.5683 74.4545 65.699 74.1848 65.699 73.8818C65.699 73.6823 65.6438 73.5142 65.5352 73.3756C65.4265 73.2371 65.2351 73.1189 64.9626 73.0173C64.7747 72.9471 64.3549 72.827 63.6939 72.6515C62.8433 72.428 62.2449 72.1527 61.8987 71.8257C61.4145 71.362 61.177 70.8023 61.177 70.1409C61.177 69.7179 61.2911 69.317 61.5158 68.9438C61.7459 68.5744 62.07 68.2954 62.5008 68.1015C62.9261 67.9075 63.4454 67.8096 64.0493 67.8096C65.0399 67.8096 65.7819 68.0386 66.2809 68.5023C66.7817 68.966 67.045 69.5849 67.0689 70.3608L65.4707 70.418C65.3989 69.9858 65.2516 69.6772 65.0307 69.4925C64.8097 69.3022 64.4746 69.2062 64.029 69.2062C63.5706 69.2062 63.2097 69.3078 62.9519 69.511C62.7862 69.6385 62.6978 69.8158 62.6978 70.0319C62.6978 70.2296 62.7788 70.3977 62.9353 70.5381C63.1379 70.7155 63.624 70.9039 64.3973 71.0997C65.1743 71.29 65.7451 71.4913 66.1133 71.7001C66.4853 71.907 66.7762 72.1841 66.9861 72.5462C67.1941 72.9046 67.2991 73.3461 67.2991 73.8744C67.2991 74.3511 67.1739 74.7963 66.9235 75.2156C66.6712 75.6313 66.3177 75.9435 65.8556 76.1467C65.3971 76.3499 64.8245 76.4515 64.1395 76.4515C63.1416 76.4515 62.3738 76.2076 61.838 75.7199C61.3003 75.2304 60.98 74.5266 60.875 73.5936Z" fill="#0E0E0E"/>
</svg>
